<?xml version="1.0" encoding="UTF-8"?>
<!-- Generated by tools/phosphor_symbols.py from phosphor-icons/core (wifi-slash, regular). -->
<!-- Phosphor Icons, MIT — see LICENSES/Phosphor-LICENSE.txt. Do not hand-edit. -->
<svg height="600" width="800" xmlns="http://www.w3.org/2000/svg" xmlns:xlink="http://www.w3.org/1999/xlink">
    <g id="Notes" font-family="LucidaGrande, 'Lucida Grande', sans-serif" font-size="13">
        <rect fill="white" height="600.0" width="800.0" x="0.0" y="0.0"/>
        <g font-size="13">
            <text x="18.0" y="176.0">Small</text>
            <text x="18.0" y="376.0">Medium</text>
            <text x="18.0" y="576.0">Large</text>
        </g>
        <g font-size="9">
            <text x="250.0" y="30.0">Ultralight</text>
            <text x="450.0" y="30.0">Regular</text>
            <text x="650.0" y="30.0">Black</text>
            <text id="template-version" fill="#505050" text-anchor="end" x="785.0" y="575.0">Template v.3.0</text>
        </g>
    </g>
    <g id="Guides" stroke="rgb(39, 170, 225)" stroke-width="0.5">
        <path id="Capline-S" d="M18,76 l800,0"/>
        <path id="H-reference" d="M85,145.755 L87.685,145.755 L113.369,79.287 L114.052,79.287 L114.052,76 L112.148,76 L85,145.755 Z M95.693,121.536 L130.996,121.536 L130.263,119.313 L96.474,119.313 L95.693,121.536 Z M139.15,145.755 L141.787,145.755 L114.638,76 L113.466,76 L113.466,79.287 L139.15,145.755 Z" stroke="none" transform="translate(0,200)"/>
        <path id="Baseline-S" d="M18,146 l800,0"/>
        <path id="left-margin-Ultralight-M" d="M210.999,256 l0,110"/>
        <path id="right-margin-Ultralight-M" d="M319.001,256 l0,110"/>
        <path id="left-margin-Regular-M" d="M408.994,256 l0,110"/>
        <path id="right-margin-Regular-M" d="M521.000,256 l0,110"/>
        <path id="left-margin-Black-M" d="M607.000,256 l0,110"/>
        <path id="right-margin-Black-M" d="M722.995,256 l0,110"/>
        <path id="Capline-M" d="M18,276 l800,0"/>
        <path id="Baseline-M" d="M18,346 l800,0"/>
        <path id="Capline-L" d="M18,476 l800,0"/>
        <path id="Baseline-L" d="M18,546 l800,0"/>
    </g>
    <g id="Symbols">
        <g id="Ultralight-M" transform="translate(201,247) scale(0.5)">
            <path d="M136,204a8,8,0,1,1-8-8A8,8,0,0,1,136,204ZM51,37.31A4,4,0,0,0,45,42.69L64.72,64.34A167.64,167.64,0,0,0,21.46,90.09a4,4,0,1,0,5.08,6.19A159.4,159.4,0,0,1,70.47,70.66l29.64,32.61a120.12,120.12,0,0,0-46.6,22.64,4,4,0,0,0,5,6.27,112,112,0,0,1,47.85-22.07L142,149.37A72.6,72.6,0,0,0,128,148a71.49,71.49,0,0,0-42.36,13.77A4,4,0,0,0,88,169a4.07,4.07,0,0,0,2.36-.76,64,64,0,0,1,62.11-7.38L205,218.69a4,4,0,1,0,5.92-5.38ZM234.54,90.09A168.33,168.33,0,0,0,128,52a171.08,171.08,0,0,0-21.5,1.36,4,4,0,0,0,1,7.94A162.68,162.68,0,0,1,128,60,160.22,160.22,0,0,1,229.46,96.28a4,4,0,0,0,5.08-6.19Zm-37,42.09a4,4,0,1,0,5-6.27,120.17,120.17,0,0,0-50.06-23.42,4,4,0,1,0-1.62,7.83A112.18,112.18,0,0,1,197.52,132.18Z"/>
        </g>
        <g id="Regular-M" transform="translate(401,247) scale(0.5)">
            <path d="M213.92,210.62a8,8,0,1,1-11.84,10.76l-52-57.15a60,60,0,0,0-57.41,7.24,8,8,0,1,1-9.42-12.93A75.43,75.43,0,0,1,128,144c1.28,0,2.55,0,3.82.1L104.9,114.49A108,108,0,0,0,61,135.31,8,8,0,0,1,49.73,134,8,8,0,0,1,51,122.77a124.27,124.27,0,0,1,41.71-21.66L69.37,75.4a155.43,155.43,0,0,0-40.29,24A8,8,0,0,1,18.92,87,171.87,171.87,0,0,1,58,62.86L42.08,45.38A8,8,0,1,1,53.92,34.62ZM128,192a12,12,0,1,0,12,12A12,12,0,0,0,128,192ZM237.08,87A172.3,172.3,0,0,0,106,49.4a8,8,0,1,0,2,15.87A158.33,158.33,0,0,1,128,64a156.25,156.25,0,0,1,98.92,35.37A8,8,0,0,0,237.08,87ZM195,135.31a8,8,0,0,0,11.24-1.3,8,8,0,0,0-1.3-11.24,124.25,124.25,0,0,0-51.73-24.2A8,8,0,1,0,150,114.24,108.12,108.12,0,0,1,195,135.31Z"/>
        </g>
        <g id="Black-M" transform="translate(601,247) scale(0.5)">
            <path d="M216.88,207.93a12,12,0,1,1-17.76,16.14L147.78,167.6a56.06,56.06,0,0,0-52.71,7.1,12,12,0,0,1-14.14-19.4,79.35,79.35,0,0,1,41.92-15.12L103.51,118.9a104.18,104.18,0,0,0-40.06,19.55,12,12,0,0,1-14.9-18.81A128.46,128.46,0,0,1,85.61,99.21l-17.31-19a151.14,151.14,0,0,0-36.68,22.28A12,12,0,1,1,16.39,83.91a175.52,175.52,0,0,1,35-22.38L39.12,48.07A12,12,0,1,1,56.88,31.93ZM128,188a16,16,0,1,0,16,16A16,16,0,0,0,128,188Zm64.55-49.55a12,12,0,0,0,14.9-18.81A127.27,127.27,0,0,0,170,99.05a12,12,0,0,0-7.87,22.67A103.62,103.62,0,0,1,192.55,138.45Zm47.06-54.54A176.33,176.33,0,0,0,128,44c-3.94,0-7.93.13-11.86.39a12,12,0,1,0,1.59,24c3.4-.23,6.86-.34,10.27-.34a152.24,152.24,0,0,1,96.38,34.46,12,12,0,1,0,15.23-18.55Z"/>
        </g>
    </g>
</svg>
