<?xml version="1.0" encoding="UTF-8"?>
<!-- Generated by tools/phosphor_symbols.py from phosphor-icons/core (plus, regular). -->
<!-- Phosphor Icons, MIT — see LICENSES/Phosphor-LICENSE.txt. Do not hand-edit. -->
<svg height="600" width="800" xmlns="http://www.w3.org/2000/svg" xmlns:xlink="http://www.w3.org/1999/xlink">
    <g id="Notes" font-family="LucidaGrande, 'Lucida Grande', sans-serif" font-size="13">
        <rect fill="white" height="600.0" width="800.0" x="0.0" y="0.0"/>
        <g font-size="13">
            <text x="18.0" y="176.0">Small</text>
            <text x="18.0" y="376.0">Medium</text>
            <text x="18.0" y="576.0">Large</text>
        </g>
        <g font-size="9">
            <text x="250.0" y="30.0">Ultralight</text>
            <text x="450.0" y="30.0">Regular</text>
            <text x="650.0" y="30.0">Black</text>
            <text id="template-version" fill="#505050" text-anchor="end" x="785.0" y="575.0">Template v.3.0</text>
        </g>
    </g>
    <g id="Guides" stroke="rgb(39, 170, 225)" stroke-width="0.5">
        <path id="Capline-S" d="M18,76 l800,0"/>
        <path id="H-reference" d="M85,145.755 L87.685,145.755 L113.369,79.287 L114.052,79.287 L114.052,76 L112.148,76 L85,145.755 Z M95.693,121.536 L130.996,121.536 L130.263,119.313 L96.474,119.313 L95.693,121.536 Z M139.15,145.755 L141.787,145.755 L114.638,76 L113.466,76 L113.466,79.287 L139.15,145.755 Z" stroke="none" transform="translate(0,200)"/>
        <path id="Baseline-S" d="M18,146 l800,0"/>
        <path id="left-margin-Ultralight-M" d="M219.000,256 l0,110"/>
        <path id="right-margin-Ultralight-M" d="M311.000,256 l0,110"/>
        <path id="left-margin-Regular-M" d="M417.000,256 l0,110"/>
        <path id="right-margin-Regular-M" d="M513.000,256 l0,110"/>
        <path id="left-margin-Black-M" d="M615.000,256 l0,110"/>
        <path id="right-margin-Black-M" d="M715.000,256 l0,110"/>
        <path id="Capline-M" d="M18,276 l800,0"/>
        <path id="Baseline-M" d="M18,346 l800,0"/>
        <path id="Capline-L" d="M18,476 l800,0"/>
        <path id="Baseline-L" d="M18,546 l800,0"/>
    </g>
    <g id="Symbols">
        <g id="Ultralight-M" transform="translate(201,247) scale(0.5)">
            <path d="M220,128a4,4,0,0,1-4,4H132v84a4,4,0,0,1-8,0V132H40a4,4,0,0,1,0-8h84V40a4,4,0,0,1,8,0v84h84A4,4,0,0,1,220,128Z"/>
        </g>
        <g id="Regular-M" transform="translate(401,247) scale(0.5)">
            <path d="M224,128a8,8,0,0,1-8,8H136v80a8,8,0,0,1-16,0V136H40a8,8,0,0,1,0-16h80V40a8,8,0,0,1,16,0v80h80A8,8,0,0,1,224,128Z"/>
        </g>
        <g id="Black-M" transform="translate(601,247) scale(0.5)">
            <path d="M228,128a12,12,0,0,1-12,12H140v76a12,12,0,0,1-24,0V140H40a12,12,0,0,1,0-24h76V40a12,12,0,0,1,24,0v76h76A12,12,0,0,1,228,128Z"/>
        </g>
    </g>
</svg>
