<?xml version="1.0" encoding="UTF-8"?>
<!-- Generated by tools/phosphor_symbols.py from phosphor-icons/core (link, regular). -->
<!-- Phosphor Icons, MIT — see LICENSES/Phosphor-LICENSE.txt. Do not hand-edit. -->
<svg height="600" width="800" xmlns="http://www.w3.org/2000/svg" xmlns:xlink="http://www.w3.org/1999/xlink">
    <g id="Notes" font-family="LucidaGrande, 'Lucida Grande', sans-serif" font-size="13">
        <rect fill="white" height="600.0" width="800.0" x="0.0" y="0.0"/>
        <g font-size="13">
            <text x="18.0" y="176.0">Small</text>
            <text x="18.0" y="376.0">Medium</text>
            <text x="18.0" y="576.0">Large</text>
        </g>
        <g font-size="9">
            <text x="250.0" y="30.0">Ultralight</text>
            <text x="450.0" y="30.0">Regular</text>
            <text x="650.0" y="30.0">Black</text>
            <text id="template-version" fill="#505050" text-anchor="end" x="785.0" y="575.0">Template v.3.0</text>
        </g>
    </g>
    <g id="Guides" stroke="rgb(39, 170, 225)" stroke-width="0.5">
        <path id="Capline-S" d="M18,76 l800,0"/>
        <path id="H-reference" d="M85,145.755 L87.685,145.755 L113.369,79.287 L114.052,79.287 L114.052,76 L112.148,76 L85,145.755 Z M95.693,121.536 L130.996,121.536 L130.263,119.313 L96.474,119.313 L95.693,121.536 Z M139.15,145.755 L141.787,145.755 L114.638,76 L113.466,76 L113.466,79.287 L139.15,145.755 Z" stroke="none" transform="translate(0,200)"/>
        <path id="Baseline-S" d="M18,146 l800,0"/>
        <path id="left-margin-Ultralight-M" d="M210.986,256 l0,110"/>
        <path id="right-margin-Ultralight-M" d="M319.000,256 l0,110"/>
        <path id="left-margin-Regular-M" d="M408.997,256 l0,110"/>
        <path id="right-margin-Regular-M" d="M521.009,256 l0,110"/>
        <path id="left-margin-Black-M" d="M606.981,256 l0,110"/>
        <path id="right-margin-Black-M" d="M723.002,256 l0,110"/>
        <path id="Capline-M" d="M18,276 l800,0"/>
        <path id="Baseline-M" d="M18,346 l800,0"/>
        <path id="Capline-L" d="M18,476 l800,0"/>
        <path id="Baseline-L" d="M18,546 l800,0"/>
    </g>
    <g id="Symbols">
        <g id="Ultralight-M" transform="translate(201,247) scale(0.5)">
            <path d="M236,88.12a50.44,50.44,0,0,1-14.81,34.31l-34.75,34.74A50.33,50.33,0,0,1,150.62,172h-.05A50.63,50.63,0,0,1,100,120a4,4,0,0,1,4-3.89h.11a4,4,0,0,1,3.89,4.11A42.64,42.64,0,0,0,150.58,164h0a42.32,42.32,0,0,0,30.14-12.49l34.75-34.74a42.63,42.63,0,1,0-60.29-60.28l-11,11a4,4,0,0,1-5.66-5.65l11-11A50.64,50.64,0,0,1,236,88.12ZM111.78,188.49l-11,11A42.33,42.33,0,0,1,70.6,212h0a42.63,42.63,0,0,1-30.11-72.77l34.75-34.74A42.63,42.63,0,0,1,148,135.82a4,4,0,0,0,8,.23A50.64,50.64,0,0,0,69.55,98.83L34.8,133.57A50.63,50.63,0,0,0,70.56,220h0a50.33,50.33,0,0,0,35.81-14.83l11-11a4,4,0,1,0-5.65-5.66Z"/>
        </g>
        <g id="Regular-M" transform="translate(401,247) scale(0.5)">
            <path d="M240,88.23a54.43,54.43,0,0,1-16,37L189.25,160a54.27,54.27,0,0,1-38.63,16h-.05A54.63,54.63,0,0,1,96,119.84a8,8,0,0,1,16,.45A38.62,38.62,0,0,0,150.58,160h0a38.39,38.39,0,0,0,27.31-11.31l34.75-34.75a38.63,38.63,0,0,0-54.63-54.63l-11,11A8,8,0,0,1,135.7,59l11-11A54.65,54.65,0,0,1,224,48,54.86,54.86,0,0,1,240,88.23ZM109,185.66l-11,11A38.41,38.41,0,0,1,70.6,208h0a38.63,38.63,0,0,1-27.29-65.94L78,107.31A38.63,38.63,0,0,1,144,135.71a8,8,0,0,0,16,.45A54.86,54.86,0,0,0,144,96a54.65,54.65,0,0,0-77.27,0L32,130.75A54.62,54.62,0,0,0,70.56,224h0a54.28,54.28,0,0,0,38.64-16l11-11A8,8,0,0,0,109,185.66Z"/>
        </g>
        <g id="Black-M" transform="translate(601,247) scale(0.5)">
            <path d="M117.18,188.74a12,12,0,0,1,0,17l-5.12,5.12A58.26,58.26,0,0,1,70.6,228h0A58.62,58.62,0,0,1,29.14,127.92L63.89,93.17a58.64,58.64,0,0,1,98.56,28.11,12,12,0,1,1-23.37,5.44,34.65,34.65,0,0,0-58.22-16.58L46.11,144.89A34.62,34.62,0,0,0,70.57,204h0a34.41,34.41,0,0,0,24.49-10.14l5.11-5.12A12,12,0,0,1,117.18,188.74ZM226.83,45.17a58.65,58.65,0,0,0-82.93,0l-5.11,5.11a12,12,0,0,0,17,17l5.12-5.12a34.63,34.63,0,1,1,49,49L175.1,145.86A34.39,34.39,0,0,1,150.61,156h0a34.63,34.63,0,0,1-33.69-26.72,12,12,0,0,0-23.38,5.44A58.64,58.64,0,0,0,150.56,180h.05a58.28,58.28,0,0,0,41.47-17.17l34.75-34.75a58.62,58.62,0,0,0,0-82.91Z"/>
        </g>
    </g>
</svg>
